<svg version="1.1" id="Layer_1" xmlns="http://www.w3.org/2000/svg" xmlns:xlink="http://www.w3.org/1999/xlink" x="0px" y="0px"
	 width="100%" viewBox="0 0 1024 1024" enable-background="new 0 0 1024 1024" xml:space="preserve">
<path fill="#000000" opacity="1.000000" stroke="none" 
	d="
M671.121277,706.910889 
	C667.846802,712.006470 662.884155,712.940369 657.853516,713.243286 
	C655.185791,713.403870 653.604980,714.297363 652.303101,716.574585 
	C647.604492,724.793396 640.624817,728.696899 631.054565,727.104065 
	C629.026245,726.766479 627.636047,727.385254 626.083252,728.614136 
	C621.238098,732.448364 615.834473,733.416260 610.232605,730.494751 
	C606.187622,728.385376 605.063721,729.973999 605.282288,733.799988 
	C606.229492,750.378418 602.961060,766.641357 601.710144,783.055542 
	C601.179565,790.016479 601.363831,797.039734 601.397278,804.033813 
	C601.440308,813.044373 601.085632,822.010437 599.470825,830.899353 
	C598.435303,836.599854 595.595459,840.790649 589.842346,842.498657 
	C587.490540,843.196899 586.174255,844.299927 586.243958,847.024170 
	C586.451782,855.138550 585.924377,863.169128 589.962097,870.875610 
	C594.361633,879.272522 588.867554,889.117554 578.971436,889.482300 
	C563.010254,890.070557 547.074585,891.323792 531.118591,892.099243 
	C524.506470,892.420593 519.092957,890.346924 516.163513,883.626099 
	C513.059021,876.503662 515.682312,870.033875 523.074158,867.807129 
	C527.704407,866.412354 532.289246,864.991028 536.590332,862.680359 
	C539.757629,860.978821 541.290222,858.611450 541.037292,855.041870 
	C540.919495,853.380066 540.686035,851.695251 540.837585,850.051575 
	C541.239990,845.686279 539.682739,843.199219 535.062561,842.539307 
	C527.538025,841.464478 524.585938,836.125122 523.706604,829.274170 
	C520.416565,803.641663 513.212952,778.783325 508.287445,753.371582 
	C508.287445,760.154053 508.178864,766.938660 508.308136,773.718750 
	C508.673676,792.888550 506.668976,811.975586 506.403076,831.127258 
	C506.272217,840.551208 505.576324,840.908325 496.359619,842.722656 
	C488.274353,844.314270 488.236603,844.314758 488.354401,852.637268 
	C488.436798,858.454407 489.013428,864.040405 491.573273,869.565002 
	C496.578217,880.366455 491.925781,888.404541 479.963074,889.394836 
	C464.215698,890.698303 448.411407,891.356567 432.622406,892.096069 
	C425.868713,892.412354 420.669342,889.812927 418.052673,883.072510 
	C415.355927,876.125671 418.233978,869.864380 425.311188,867.749084 
	C430.095978,866.319031 434.913818,865.027283 439.251831,862.387024 
	C442.640167,860.324646 444.195007,857.568176 443.328827,853.604309 
	C443.222229,853.116516 443.142517,852.621033 443.082184,852.125183 
	C441.988892,843.138306 442.016663,843.024902 433.093231,840.918640 
	C427.831360,839.676636 425.255463,836.631348 424.638031,831.264954 
	C421.349335,802.681396 417.017548,774.227600 414.563599,745.533630 
	C413.717407,735.639404 410.667999,725.950745 409.431976,716.067200 
	C408.493225,708.560791 408.455414,700.961792 406.744568,693.506470 
	C405.965393,690.110962 404.880402,687.385254 402.020325,685.137695 
	C389.846222,675.571045 380.896484,663.485718 374.994904,649.189026 
	C374.021759,646.831604 372.694550,645.475403 370.233398,644.646240 
	C361.777496,641.797485 357.611725,636.181763 358.115204,627.368225 
	C358.824890,614.944214 358.621246,602.419800 361.645691,590.192078 
	C363.090668,584.350098 364.356720,578.341614 367.493561,573.254395 
	C375.195618,560.763428 377.160522,546.833618 378.676331,532.728394 
	C381.067413,510.478546 386.692291,489.232147 397.937531,469.692810 
	C401.111938,464.177094 405.436249,459.590363 409.862976,455.419403 
	C409.366241,453.368652 407.863342,453.131500 406.710632,452.707245 
	C395.781708,448.684814 386.287750,442.167603 377.197601,435.164062 
	C363.061066,424.272430 354.967896,410.009521 355.990723,391.731659 
	C356.747528,378.207855 353.217316,365.321625 351.292114,352.180542 
	C349.170044,337.695953 346.635315,323.256439 345.640442,308.629578 
	C345.311584,303.794922 342.847351,299.935791 341.001007,295.676025 
	C337.491821,287.579956 332.279572,281.256531 325.986298,275.103485 
	C314.801239,264.167633 310.858673,249.573547 308.701294,234.475540 
	C304.673828,206.290161 314.725525,182.598969 331.651703,160.876526 
	C342.977783,146.341049 354.780487,132.554962 371.284546,123.446991 
	C375.201813,121.285179 377.805084,116.859268 381.317139,113.827385 
	C406.258606,92.296127 435.733185,81.437218 468.064606,77.827126 
	C493.919189,74.940239 519.258423,77.541740 543.817810,86.530853 
	C557.181763,91.422272 568.868103,98.886581 578.747925,109.115868 
	C580.492737,110.922409 582.313171,111.768799 584.839294,111.890762 
	C617.086426,113.447685 639.745483,130.170593 656.913696,156.501785 
	C669.716187,176.137207 677.362000,197.953690 685.755920,219.496765 
	C689.274658,228.527771 687.577942,231.665848 678.289795,234.567993 
	C675.556152,235.422165 674.785034,236.644012 675.029846,239.561691 
	C676.308411,254.799942 674.577087,269.506348 666.268250,282.831512 
	C665.037476,284.805298 665.215820,286.977539 665.144775,289.130432 
	C664.986023,293.942749 665.389587,298.930786 660.550293,302.124451 
	C659.689026,302.692902 659.534241,303.781464 659.636169,304.842773 
	C660.696411,315.877289 659.542419,326.766815 657.452393,337.591309 
	C657.150696,339.153412 657.546204,340.528351 658.280457,341.898315 
	C667.222107,358.580627 660.624268,375.119873 648.606934,386.639496 
	C638.560730,396.269623 626.200806,401.429688 612.722168,404.146301 
	C611.099548,404.473328 609.323181,404.348816 608.187683,405.848114 
	C599.875977,416.822235 590.303650,426.432861 578.423523,432.833984 
	C578.232666,434.873413 579.411194,435.163177 580.231934,435.455994 
	C587.798523,438.155701 593.364441,443.482330 597.703674,449.850372 
	C604.701416,460.119904 614.361084,468.003662 621.884094,477.725006 
	C636.035950,496.012299 648.832153,515.292603 653.288452,538.405762 
	C655.727966,551.058533 657.017517,563.605774 664.282593,574.923096 
	C668.620850,581.681091 665.630127,589.168030 661.901428,595.762939 
	C660.455627,598.320129 659.758789,600.742432 660.092896,603.774719 
	C660.811279,610.294250 659.657959,612.937439 652.360840,624.994263 
	C665.958557,632.122559 666.124573,646.222778 669.282349,658.637207 
	C672.230164,670.225830 674.694397,681.978455 674.368164,694.088867 
	C674.249512,698.490112 673.399841,702.677185 671.121277,706.910889 
M384.011536,303.588623 
	C379.019745,303.800110 374.029846,304.105316 369.035828,304.203857 
	C358.114410,304.419312 358.113556,304.376434 360.733582,293.678650 
	C356.962158,293.927246 355.253143,295.763092 355.542297,299.398590 
	C355.806152,302.716400 355.882477,306.088226 356.569000,309.324341 
	C357.642731,314.385620 356.725952,319.863861 359.608002,325.075195 
	C364.431458,320.775146 369.823273,318.203125 375.364441,315.905731 
	C394.173248,308.107605 411.206543,313.148041 427.415680,323.322357 
	C429.725281,324.772034 430.991913,327.433350 429.678223,330.342712 
	C428.477539,333.001740 426.299896,334.366394 423.288696,334.239349 
	C422.174530,334.192322 421.039612,333.399750 419.638123,334.537262 
	C419.522675,335.381653 419.474609,336.537018 419.198029,337.634796 
	C415.593994,351.939331 403.351929,358.905975 391.383972,352.150360 
	C384.934723,348.509979 381.369904,342.351593 380.379944,335.114868 
	C379.735168,330.401306 377.762939,329.520752 373.774933,331.232452 
	C372.860382,331.624969 371.906860,331.941101 370.949554,332.217041 
	C366.737549,333.431030 367.006989,335.915100 368.895294,339.014587 
	C369.926880,340.707855 372.071960,341.874939 371.919098,344.429047 
	C367.232666,343.897430 365.552887,339.358093 362.141510,337.359985 
	C362.141510,342.136414 361.731140,346.294678 362.214630,350.346252 
	C364.027130,365.535431 366.074280,380.649170 366.698578,396.006256 
	C367.101746,405.924469 370.772491,415.676086 378.871063,422.624908 
	C385.306702,428.146912 391.893158,433.473480 399.897217,436.766724 
	C414.372711,442.722656 428.776062,448.876251 443.871216,453.131348 
	C467.929382,459.912933 491.851776,461.253296 516.043396,452.880157 
	C532.630371,447.139099 546.961975,437.452118 562.176025,429.252899 
	C575.913513,421.849396 587.104370,411.353973 597.493591,400.192932 
	C602.098145,395.246216 606.652832,392.529572 612.917847,391.672485 
	C614.394165,391.470490 615.844421,391.021210 617.282043,390.601440 
	C631.154480,386.551025 642.469482,379.151764 648.559631,365.540344 
	C652.861206,355.926544 648.231628,343.777710 639.672302,341.977997 
	C632.933838,340.561157 627.261414,343.544342 622.545532,348.107025 
	C619.557556,350.997925 616.930542,354.286285 613.519714,356.710205 
	C609.701538,359.423553 607.461487,358.535858 606.400879,354.062805 
	C606.132629,352.931366 605.877258,351.777405 605.804932,350.621948 
	C605.066650,338.823029 604.117615,327.029999 603.725952,315.218781 
	C603.318115,302.918274 602.157837,290.958313 594.374084,280.701843 
	C593.275085,279.253693 592.596130,277.404358 590.343933,277.433777 
	C586.583618,277.482849 583.179688,276.046509 579.712646,274.881378 
	C578.275024,274.398315 576.547424,273.615082 575.436401,274.770905 
	C572.964600,277.342529 569.476379,278.182098 566.216309,280.364471 
	C568.597290,282.710968 570.745911,284.731567 572.779236,286.862213 
	C574.501648,288.667053 576.730530,290.684784 575.843628,293.297821 
	C574.799011,296.375488 571.585205,295.235779 569.259766,295.264313 
	C553.263733,295.460541 537.311096,293.654022 521.301025,294.196289 
	C511.814636,294.517609 502.314728,294.017822 492.831085,294.970612 
	C487.312744,295.525024 485.578705,292.719666 487.836914,287.555298 
	C488.103058,286.946655 488.484528,286.389130 488.763092,285.785095 
	C490.305786,282.440338 489.413269,280.946594 485.627075,281.729889 
	C477.828766,283.343170 470.438324,281.960358 463.184967,278.952393 
	C460.487640,277.833801 457.974548,275.948730 454.359985,276.186981 
	C454.508759,284.018921 450.929474,289.230194 443.218140,291.120911 
	C439.436157,292.048157 435.610840,291.846313 431.834595,290.917328 
	C429.924500,290.447449 427.990204,289.549225 426.107269,291.633240 
	C426.385162,292.303467 426.632690,293.062805 426.999298,293.759460 
	C430.970123,301.305328 429.851624,303.189148 421.441071,303.233063 
	C409.276062,303.296570 397.111298,303.406921 384.011536,303.588623 
M392.562286,205.076813 
	C391.787018,208.074570 392.863251,210.664322 394.446320,213.082031 
	C396.267792,215.863739 398.280853,218.521194 400.071106,221.321854 
	C403.763885,227.098862 406.131989,228.178162 412.464783,226.275360 
	C416.948273,224.928192 421.482605,224.194427 426.132141,223.635666 
	C432.207275,222.905594 438.484375,222.280670 443.871643,218.984436 
	C456.689514,211.141739 471.605103,207.970383 484.568542,200.311462 
	C490.541351,196.782669 494.138153,193.027237 492.637970,186.131729 
	C489.558594,171.977127 480.700531,162.732803 467.095001,158.100204 
	C463.015320,156.711105 458.715271,155.971649 454.520416,154.917831 
	C447.379333,153.123932 440.901367,154.442642 434.375580,157.942474 
	C426.851532,161.977707 418.947296,165.366730 411.017426,168.563202 
	C404.429504,171.218765 400.011658,176.752640 400.066498,183.845612 
	C400.094391,187.452499 399.064819,190.718750 397.566833,193.915192 
	C395.944763,197.376389 394.370483,200.859985 392.562286,205.076813 
M553.329285,650.674988 
	C548.148743,652.537415 547.643860,656.666931 548.302856,661.259399 
	C550.669678,677.751343 553.119385,694.259583 558.535217,710.074585 
	C560.317810,715.280090 563.695007,720.120117 569.951477,720.779480 
	C576.247620,721.443115 582.597961,721.282410 588.836243,719.767822 
	C595.958740,718.038635 600.558350,712.087036 600.812134,704.628540 
	C601.136719,695.086792 595.549622,687.265808 593.357910,678.446899 
	C592.239075,673.945068 592.258850,669.829773 596.319885,667.877441 
	C601.288452,665.488831 602.054321,661.994751 601.001648,657.218140 
	C600.430481,654.626587 600.149719,651.948303 599.992859,649.294006 
	C599.801819,646.060425 598.128906,644.886108 595.090271,645.168274 
	C590.947937,645.552856 586.793823,645.833496 582.662720,646.313049 
	C573.093689,647.423889 563.354614,647.363220 553.329285,650.674988 
M568.769470,205.752441 
	C573.298523,207.565948 578.021179,209.744110 582.377930,205.888351 
	C586.852417,201.928436 590.860657,197.445114 595.135437,193.254578 
	C596.939453,191.486145 596.247986,188.065155 598.973572,187.113129 
	C602.569580,185.857040 603.202393,183.233643 602.894653,179.993195 
	C602.563110,176.502197 600.147827,174.651718 597.178833,173.792740 
	C594.504272,173.018936 592.722229,171.505875 590.700439,169.661774 
	C586.386841,165.727417 582.718201,161.231171 578.605530,157.149933 
	C573.843689,152.424484 571.112854,153.167236 568.885132,159.337067 
	C567.927795,161.988297 566.466492,164.268433 563.268066,164.127487 
	C559.880920,163.978210 558.455872,161.561386 557.789856,158.580292 
	C557.572815,157.608871 557.508057,156.604416 557.343933,155.620041 
	C555.883484,146.860352 553.064697,144.971680 544.342407,146.630539 
	C541.648926,147.142807 539.311340,148.081741 537.212036,149.891342 
	C535.059814,151.746521 532.517883,153.009277 529.770935,153.849777 
	C523.074097,155.898834 521.785461,160.167938 526.734741,165.069397 
	C530.059387,168.361847 531.415710,172.218704 531.882385,176.620941 
	C532.232666,179.925461 532.892639,183.239349 532.826782,186.537323 
	C532.672974,194.244659 537.134888,198.056381 543.752502,200.062546 
	C546.756531,200.973251 549.899353,201.500214 553.015442,201.951172 
	C558.128784,202.691208 563.224670,203.430664 568.769470,205.752441 
M543.169983,717.167053 
	C540.967224,714.651794 537.955200,715.469299 535.207336,715.269836 
	C532.819397,715.096619 530.456970,715.085938 529.961548,711.913147 
	C529.258667,707.412231 526.357483,706.057251 522.083435,706.181641 
	C510.900421,706.507141 499.845856,704.995605 488.792938,703.532410 
	C485.616974,703.111877 482.417053,702.872131 478.157501,702.441284 
	C483.135895,707.908569 491.007019,707.083862 494.089813,713.374023 
	C491.745880,714.658630 489.610107,714.006104 487.527100,713.628174 
	C474.260132,711.221558 461.065765,708.533997 448.279327,704.106201 
	C444.016663,702.630066 441.575623,704.532715 442.858673,708.480164 
	C445.275421,715.915710 447.991425,723.179382 455.305634,727.707031 
	C460.514587,730.931458 465.362488,734.807129 470.078278,738.743469 
	C476.277222,743.917908 483.313904,746.324219 491.265778,745.990540 
	C497.784088,745.716858 500.349396,741.226257 497.560272,735.259888 
	C496.011627,731.947021 494.202545,728.753357 492.719727,725.413147 
	C491.856140,723.467896 490.836090,721.029724 493.213318,719.570068 
	C495.393799,718.231201 496.988007,720.260193 498.249237,721.685303 
	C502.435425,726.415466 506.562866,731.205688 510.520844,736.127258 
	C513.687744,740.065063 517.591003,740.794128 522.131897,739.425171 
	C526.432739,738.128479 530.750793,736.861084 534.971436,735.332642 
	C542.800049,732.497620 546.623596,724.578186 543.169983,717.167053 
M613.348511,709.995850 
	C613.430420,710.822388 613.421875,711.669983 613.608704,712.472107 
	C614.973694,718.331970 617.236877,719.441345 622.693665,716.725769 
	C625.255371,715.451050 627.949951,715.289307 630.472717,716.013123 
	C634.462585,717.157898 637.983032,715.653931 640.534180,713.459412 
	C643.485046,710.921143 647.217896,707.568542 645.914246,703.054443 
	C643.998962,696.422058 642.059814,689.601624 636.580078,684.657471 
	C634.730530,682.988708 634.235474,680.624756 634.347961,678.248230 
	C634.512817,674.764038 634.798889,671.278198 635.210632,667.814148 
	C636.719849,655.117310 638.429871,642.442871 639.798157,629.731323 
	C640.391541,624.219177 638.165039,622.223389 632.571045,622.216064 
	C625.674683,622.207092 619.090393,624.063538 612.454285,625.567261 
	C609.170288,626.311401 608.075439,628.187134 608.750549,631.817932 
	C611.724792,647.815491 614.420898,663.865662 617.087769,679.918335 
	C617.433655,682.000122 617.765198,684.622559 616.835022,686.284912 
	C612.780212,693.531616 613.359619,701.330688 613.348511,709.995850 
M385.124817,144.008560 
	C379.659882,143.261902 374.429291,144.695496 369.550690,146.656143 
	C359.970490,150.506256 352.386292,156.783905 348.728455,166.877426 
	C346.869293,172.007629 348.673370,177.931610 352.943542,179.217636 
	C357.154572,180.485901 360.969269,182.490189 364.712769,184.561981 
	C369.135101,187.009491 372.960297,186.116150 376.933807,183.863235 
	C386.265137,178.572525 393.081512,171.533066 395.718658,160.577805 
	C397.859039,151.686203 395.045258,146.053833 385.124817,144.008560 
M384.597229,645.864746 
	C394.871124,662.845093 403.704163,672.594849 409.821289,673.092285 
	C408.638275,667.936890 408.396973,662.759094 409.977020,657.856995 
	C412.127838,651.183960 411.105408,645.123108 409.096863,638.489563 
	C406.176422,628.844116 400.587891,627.484436 390.744110,630.227234 
	C383.701019,632.189514 381.386688,638.408447 384.597229,645.864746 
M484.743073,483.946289 
	C502.078461,489.330353 520.249817,475.502563 523.755920,463.368896 
	C519.701782,462.924347 516.290161,464.009613 513.223633,466.631897 
	C509.562073,469.763062 505.884583,472.896179 502.011444,475.753876 
	C497.485748,479.093018 492.490662,480.071381 486.902435,478.392914 
	C481.279938,476.704163 476.153351,473.960175 470.822174,471.644562 
	C469.318207,470.991302 467.755676,469.443848 465.933929,471.149536 
	C469.144226,476.732941 473.922333,480.038452 484.743073,483.946289 
M474.654297,693.918457 
	C487.640381,699.551697 501.394135,699.888489 515.203552,699.708496 
	C517.401062,699.679871 519.880066,699.729004 521.218567,697.026611 
	C519.859192,694.720093 517.603882,694.630859 515.544617,694.390625 
	C512.575012,694.044250 509.666870,693.554993 506.744995,692.845703 
	C496.564270,690.374207 486.116089,689.539185 475.749329,688.235474 
	C474.210297,688.041870 472.119354,687.641418 471.499695,689.756592 
	C470.934814,691.684875 472.499054,692.728333 474.654297,693.918457 
M469.776550,844.586609 
	C466.961029,844.478516 464.145752,844.293274 461.329926,844.284363 
	C458.583771,844.275696 455.331207,843.584412 454.392639,847.382629 
	C453.470642,851.113953 455.040466,853.834595 458.458405,855.495056 
	C462.331909,857.376892 466.211182,859.247253 470.103119,861.090637 
	C471.875000,861.929932 472.496094,865.202881 475.353333,863.698730 
	C478.109985,862.247498 477.566315,859.513062 477.684296,857.079834 
	C477.748535,855.755310 477.731232,854.425842 477.720795,853.098816 
	C477.668335,846.418274 477.245575,845.927673 469.776550,844.586609 
M570.931030,863.195740 
	C572.886719,863.374878 574.981262,863.084717 575.291565,860.924622 
	C575.900940,856.681396 576.245422,852.325378 575.134094,848.112610 
	C574.491333,845.675903 572.243347,845.077332 569.968262,845.058472 
	C566.158752,845.026855 562.347168,845.169556 558.538879,845.101440 
	C555.475952,845.046692 553.460205,846.269409 552.628113,849.277588 
	C551.782654,852.334290 553.702087,853.754089 555.907104,855.206299 
	C560.474670,858.214478 566.082520,859.268677 570.931030,863.195740 
M424.384491,686.065369 
	C421.931030,685.020569 419.960022,681.028870 417.271637,682.927673 
	C414.572510,684.834045 416.671783,688.418274 417.232544,691.241089 
	C417.716492,693.676880 418.148224,696.249939 421.128937,696.991333 
	C423.971069,697.698181 425.333252,695.301880 426.870575,693.807739 
	C430.263123,690.510498 426.410339,688.735046 424.384491,686.065369 
M375.625519,284.141296 
	C377.500671,283.390289 379.732849,283.205078 380.967499,281.136871 
	C374.613861,277.430847 369.439087,275.306213 368.529327,276.362488 
	C366.105042,279.177155 367.707886,282.663300 367.434387,285.850647 
	C367.414154,286.086578 367.770355,286.354797 368.132050,286.860260 
	C370.354492,286.062012 372.648560,285.237976 375.625519,284.141296 
z"/>
<path fill="#000000" opacity="1.000000" stroke="none" 
	d="
M473.390137,373.569641 
	C469.298828,368.683777 468.936859,364.007812 472.836456,359.254395 
	C475.748505,355.704803 474.687347,352.863037 471.364838,350.360565 
	C470.435181,349.660400 469.452057,348.998688 468.648590,348.169067 
	C465.220276,344.629150 463.681152,338.326843 465.447937,335.361694 
	C467.711243,331.563263 474.334198,329.201752 479.215302,330.569611 
	C481.617615,331.242889 483.936249,332.328766 486.517151,331.737701 
	C488.707794,331.235992 490.196320,330.277618 489.451660,327.573639 
	C487.321472,319.838409 489.067505,316.116547 496.701141,313.124481 
	C511.262299,307.417206 526.315369,305.565369 541.799438,308.202087 
	C551.017456,309.771790 560.128235,311.660095 567.929382,317.397583 
	C571.015930,319.667633 573.373047,322.283173 571.806824,326.163513 
	C570.335327,329.809326 566.992676,330.453217 563.393982,329.508209 
	C560.136841,328.652924 559.608154,330.461029 559.019287,333.147400 
	C556.465393,344.797699 547.902771,351.780182 536.622620,352.455841 
	C528.629822,352.934570 523.282104,349.355835 519.318176,342.912109 
	C515.809387,337.208160 514.767883,330.917480 515.248718,324.074615 
	C509.736755,323.754395 504.761505,324.897827 499.857727,326.391388 
	C496.646576,327.369354 497.053040,329.514465 498.237762,331.935181 
	C501.450317,338.499451 506.746552,342.922943 512.911987,346.498413 
	C515.962097,348.267242 518.765198,350.071899 519.483887,354.101898 
	C519.928162,356.593475 522.052917,357.900787 524.822937,357.453369 
	C525.809082,357.294037 526.801575,356.982635 527.782166,357.014679 
	C530.852295,357.115021 534.824768,356.005859 536.206177,359.649811 
	C537.734131,363.680054 538.186340,368.250488 534.637146,371.817200 
	C529.095764,377.385834 522.691162,381.938080 516.218018,386.304321 
	C512.272217,388.965759 507.494385,388.658234 503.158386,387.108093 
	C498.612427,385.482910 494.214325,385.200562 489.456757,385.940002 
	C481.483154,387.179321 479.685760,385.956665 476.258148,378.685211 
	C475.479248,377.032745 474.488800,375.479950 473.390137,373.569641 
z"/>
<path fill="#000000" opacity="1.000000" stroke="none" 
	d="
M452.119934,403.607361 
	C463.382690,403.570618 474.158997,404.389679 484.937988,402.852966 
	C491.824890,401.871155 495.568756,403.822449 496.060822,407.544464 
	C496.570740,411.401611 492.737854,415.100006 486.725769,416.212158 
	C474.276672,418.515076 461.929962,417.454620 449.674194,414.721588 
	C448.397430,414.436859 447.140076,413.884003 445.991425,413.244232 
	C443.699463,411.967560 441.815399,410.149811 442.363922,407.312500 
	C442.944427,404.309814 445.530151,403.781097 448.150208,403.657013 
	C449.311188,403.601990 450.475372,403.615662 452.119934,403.607361 
z"/>
<path fill="#000000" opacity="1.000000" stroke="none" 
	d="
M621.098389,359.033691 
	C623.624390,357.081268 625.880310,355.401581 628.629395,354.500092 
	C631.393799,353.593567 634.029785,353.605835 635.830566,356.132629 
	C637.638123,358.669128 636.193604,361.007294 634.442627,362.844360 
	C632.272766,365.121063 629.889160,367.229950 627.401733,369.158478 
	C624.581604,371.345001 622.755066,374.344543 620.408875,376.908539 
	C618.415527,379.086975 615.905640,380.705994 612.940552,378.691406 
	C609.883057,376.613983 609.275757,373.705994 611.016357,370.395691 
	C613.382996,365.894897 616.714478,362.236450 621.098389,359.033691 
z"/>
<path fill="#000000" opacity="1.000000" stroke="none" 
	d="
M452.364685,347.645905 
	C456.458313,347.529358 458.067780,350.114777 458.685669,353.149048 
	C459.743103,358.341614 460.643097,363.601410 461.071991,368.876648 
	C461.473236,373.811676 458.904785,377.181396 455.253174,377.297211 
	C450.465393,377.449036 449.175293,374.069977 448.470001,370.220795 
	C447.533722,365.111267 447.578033,359.952759 448.039001,354.821808 
	C448.293396,351.990265 449.135803,349.227753 452.364685,347.645905 
z"/>
</svg>